<?xml version="1.0" encoding="UTF-8" standalone="no"?>
<!-- Generator: Adobe Illustrator 19.0.0, SVG Export Plug-In . SVG Version: 6.00 Build 0)  -->

<svg
   version="1.1"
   id="Layer_1"
   x="0px"
   y="0px"
   viewBox="0 0 1292.7471 571.46735"
   xml:space="preserve"
   sodipodi:docname="logo_black.svg"
   width="1292.7471"
   height="571.46735"
   inkscape:version="1.2.2 (b0a8486541, 2022-12-01)"
   xmlns:inkscape="http://www.inkscape.org/namespaces/inkscape"
   xmlns:sodipodi="http://sodipodi.sourceforge.net/DTD/sodipodi-0.dtd"
   xmlns="http://www.w3.org/2000/svg"
   xmlns:svg="http://www.w3.org/2000/svg"><defs
   id="defs82" /><sodipodi:namedview
   id="namedview80"
   pagecolor="#ffffff"
   bordercolor="#000000"
   borderopacity="0.25"
   inkscape:showpageshadow="2"
   inkscape:pageopacity="0.0"
   inkscape:pagecheckerboard="0"
   inkscape:deskcolor="#d1d1d1"
   showgrid="false"
   inkscape:zoom="0.55899179"
   inkscape:cx="821.12118"
   inkscape:cy="388.1989"
   inkscape:window-width="1920"
   inkscape:window-height="1131"
   inkscape:window-x="0"
   inkscape:window-y="0"
   inkscape:window-maximized="1"
   inkscape:current-layer="Layer_1"
   showguides="false" />
<style
   type="text/css"
   id="style2">
	.st0{fill:none;stroke:#000000;stroke-width:2;stroke-miterlimit:10;}
</style>
<g
   id="XMLID_19_"
   transform="translate(-434.48761,-293.15869)"
   style="fill:#000000"
   inkscape:export-filename="logo_black.png"
   inkscape:export-xdpi="96"
   inkscape:export-ydpi="96">
	<g
   id="XMLID_104_"
   style="fill:#000000">
		<g
   id="XMLID_105_"
   transform="translate(81.887609,192.58144)"
   style="fill:#000000">
			<g
   id="XMLID_106_"
   style="fill:#000000">
				<path
   id="XMLID_23_"
   d="m 352.6,362.3 v 2 h 162.3 l 14.8,-50.7 h -2 c -10.8,32.5 -37.2,48.6 -75.8,48.6 -16.4,0 -26.5,-9 -26.5,-23.8 V 196.9 c 0,-14.8 10.1,-23.8 26.5,-23.8 v -2 h -99.3 v 2 c 16.4,0 26.5,9 26.5,23.8 v 141.7 c 0,14.8 -10.1,23.7 -26.5,23.7 z"
   style="fill:#000000" />
			</g>
		</g>
	</g>
	<g
   id="XMLID_100_"
   style="fill:#000000">
		<g
   id="XMLID_101_"
   transform="translate(122.2818,192.58144)"
   style="fill:#000000">
			<g
   id="XMLID_102_"
   style="fill:#000000">
				<path
   id="XMLID_22_"
   d="m 511.7,362.3 v 2 H 674 l 14.8,-50.7 h -2 c -10.8,32.5 -37.2,48.6 -75.8,48.6 -16.4,0 -26.5,-9 -26.5,-23.8 v -74.7 h 33.6 c 20.6,0.7 22.7,19.3 22.7,24.4 v 1.1 h 2 v -52.9 h -2 v 1.1 c 0,5.2 -2,23.8 -22.7,24.2 h -33.6 l 0.2,-88.8 H 601 c 54.3,0 65.9,33.2 68.1,44.6 l 0.7,4 1.8,-0.9 -7.6,-49.8 H 511.7 v 2 c 16.4,0 26.5,9 26.5,23.8 v 141.7 c 0,15.2 -10.1,24.1 -26.5,24.1 z"
   style="fill:#000000" />
			</g>
		</g>
	</g>
	<g
   id="XMLID_96_"
   style="fill:#000000">
		<g
   id="XMLID_97_"
   transform="translate(162.67598,192.58144)"
   style="fill:#000000">
			<g
   id="XMLID_98_"
   style="fill:#000000">
				<path
   id="XMLID_21_"
   d="m 671.6,362.3 v 2 h 52.9 v -2 c -14.1,0 -18.6,-6.3 -9.6,-20 l 2.7,-3.6 41.7,-54.5 34.3,54.5 c 10.1,15.9 8.1,23.3 -5.4,23.5 v 2 h 91 v -2 c -11.4,-0.2 -20.9,-6.9 -31.4,-23.5 l -59,-93 37.5,-48.6 c 11.2,-14.8 26.2,-24.2 44.2,-24 v -2 h -52.9 v 2 c 16.1,0 19.3,6.9 6.3,24 L 787.7,244 758.1,197.2 c -10.1,-15.9 -8.7,-24 3.8,-24 v -2 h -91 v 2 c 12.8,0 22.4,6.9 33.2,24 l 54,85.4 -43.3,56.3 c -12.1,15.8 -25.3,23.2 -43.2,23.4 z"
   style="fill:#000000" />
			</g>
		</g>
	</g>
	<g
   id="XMLID_92_"
   style="fill:#000000">
		<g
   id="XMLID_93_"
   transform="translate(209.37893,192.58144)"
   style="fill:#000000">
			<g
   id="XMLID_94_"
   style="fill:#000000">
				<path
   id="XMLID_20_"
   d="m 908.4,362.3 v 2 h 99.3 v -2 c -16.4,0 -26.5,-9.2 -26.5,-24 v -60.8 l 43.9,-80.3 c 7.4,-13.4 19.3,-23.3 36.3,-24 v -2 h -53.1 v 2 c 17,0.4 22.2,9.9 14.6,23.8 L 980.1,275 935,197 c -8.1,-14.1 -5.6,-23.3 10.8,-23.8 l -0.7,-2.2 h -91 l 0.5,1.8 c 14.4,0.4 26.1,9.1 34.9,24.2 l 45.3,79.1 v 62.1 c 0.1,15 -10.2,24.1 -26.4,24.1 z"
   style="fill:#000000" />
			</g>
		</g>
	</g>
	<g
   id="XMLID_84_"
   style="fill:#000000">
		<g
   id="XMLID_85_"
   transform="translate(266.74775,192.58144)"
   style="fill:#000000">
			<g
   id="XMLID_86_"
   style="fill:#000000">
				<path
   id="XMLID_18_"
   d="m 1081.1,364.4 h 2 v -0.2 c 0,-9.9 1.8,-16.8 32.1,-5.2 28.5,10.8 68.8,8.1 87.9,-11 9,-9 15.7,-25.1 15.7,-38.1 0,-39.5 -31.6,-46.8 -68.4,-69.5 -21.5,-13.2 -31.8,-23.8 -31.8,-39 0,-16.8 8.3,-29.8 34.5,-29.8 10.3,0 20,2.7 27.8,7.2 20.2,13 21.3,50.2 21.3,50.2 h 2 v -53.1 h -2 v 0.9 c -0.9,8.5 -18.6,1.1 -26.2,-2.7 -6.9,-3.4 -14.8,-4.5 -22.9,-4.5 -26.9,0 -52.9,14.6 -63.2,37.9 -11.4,25.6 -0.7,41.5 33,66.6 24.4,18.2 71.1,33.2 70.2,58.3 -0.7,16.8 -12.8,31.2 -45.3,31.2 -33,0 -64.6,-29.2 -64.6,-58.1 v -5.2 h -2 v 64.1 z"
   style="fill:#000000" />
			</g>
		</g>
	</g>
</g>
<g
   id="XMLID_53_"
   transform="translate(-434.48761,-293.15869)">
	<g
   id="XMLID_54_"
   transform="translate(189.16049,216.93362)">
	</g>
</g>
<g
   id="beauty"
   transform="translate(-434.48761,-293.15869)"
   style="fill:#000000">
	<g
   id="XMLID_77_"
   style="fill:#000000">
		<g
   id="XMLID_78_"
   transform="translate(112.52479,216.93362)"
   style="fill:#000000">
			<g
   id="XMLID_79_"
   style="fill:#000000">
				<path
   id="XMLID_80_"
   d="m 373.5,452.8 c 0,-2.8 -0.7,-5.1 -2,-7 -1.4,-1.8 -3.2,-3.1 -5.5,-3.7 1.3,-0.6 2.5,-1.6 3.3,-3.2 0.4,-0.7 0.7,-1.4 0.9,-2.1 0.2,-0.7 0.3,-1.8 0.3,-3.1 0,-1.3 -0.3,-2.6 -0.9,-3.8 -1.7,-3.5 -5.4,-5.3 -11.1,-5.3 h -10.6 v 39 H 360 c 4,0 7.1,-0.8 9.5,-2.7 1.2,-0.9 2.2,-2.1 2.9,-3.6 0.7,-1.4 1.1,-2.9 1.1,-4.5 z m -6.8,-18.4 c 0,2.1 -0.6,3.7 -1.9,4.7 -1.3,1 -2.9,1.5 -5,1.5 h -7.7 v -12.1 h 6.5 c 5.4,0 8.1,2 8.1,5.9 z m 2.8,17.6 c 0,2.3 -0.8,4.2 -2.4,5.7 -1.5,1.5 -3.6,2.1 -5.9,2.1 h -9.1 v -15.1 h 9.7 c 2,0 3.8,0.7 5.3,2.1 0.7,0.6 1.3,1.4 1.7,2.2 0.5,0.9 0.7,1.8 0.7,3 z"
   style="fill:#000000" />
			</g>
		</g>
	</g>
	<g
   id="XMLID_73_"
   style="fill:#000000">
		<g
   id="XMLID_74_"
   transform="translate(125.05055,216.93362)"
   style="fill:#000000">
			<g
   id="XMLID_75_"
   style="fill:#000000">
				<path
   id="XMLID_14_"
   d="m 430.4,463.6 v -3.7 H 411.3 V 446 h 18.6 v -3.8 h -18.6 v -13.9 h 19.1 v -3.7 h -23.2 v 39 z"
   style="fill:#000000" />
			</g>
		</g>
	</g>
	<g
   id="XMLID_67_"
   style="fill:#000000">
		<g
   id="XMLID_68_"
   transform="translate(137.72642,216.93362)"
   style="fill:#000000">
			<g
   id="XMLID_69_"
   style="fill:#000000">
				<path
   id="XMLID_70_"
   d="m 473.4,449.3 7.1,-17.9 7,17.9 z m 24.2,14.3 -17,-41.6 -17.1,41.7 h 4.3 L 472,453 h 17.1 l 4.2,10.6 z"
   style="fill:#000000" />
			</g>
		</g>
	</g>
	<g
   id="XMLID_63_"
   style="fill:#000000">
		<g
   id="XMLID_64_"
   transform="translate(151.03279,216.93362)"
   style="fill:#000000">
			<g
   id="XMLID_65_"
   style="fill:#000000">
				<path
   id="XMLID_11_"
   d="m 558.2,450.7 v -26.1 h -4 v 26.7 c 0,1.6 -0.3,2.9 -0.9,4 -1.7,3.2 -4.9,4.8 -9.6,4.8 -3.1,0 -5.6,-0.7 -7.4,-2.1 -2.1,-1.5 -3.2,-3.8 -3.2,-6.8 v -26.7 h -4 v 26.1 c 0,4.2 1.4,7.6 4.1,10 2.6,2.3 6.1,3.4 10.4,3.4 4.3,0 7.7,-1.1 10.4,-3.4 2.8,-2.3 4.2,-5.6 4.2,-9.9 z"
   style="fill:#000000" />
			</g>
		</g>
	</g>
	<g
   id="XMLID_59_"
   style="fill:#000000">
		<g
   id="XMLID_60_"
   transform="translate(164.43924,216.93362)"
   style="fill:#000000">
			<g
   id="XMLID_61_"
   style="fill:#000000">
				<path
   id="XMLID_10_"
   d="m 590.2,428.3 h 9.5 v 35.2 h 4 v -35.2 h 9.5 v -3.7 h -22.9 v 3.7 z"
   style="fill:#000000" />
			</g>
		</g>
	</g>
	<g
   id="XMLID_55_"
   style="fill:#000000">
		<g
   id="XMLID_56_"
   transform="translate(175.97422,216.93362)"
   style="fill:#000000">
			<g
   id="XMLID_57_"
   style="fill:#000000">
				<path
   id="XMLID_9_"
   d="m 662.9,445.3 14.7,-20.6 h -5.1 l -11.6,16.7 -11.6,-16.7 h -5.1 l 14.8,20.7 v 18.3 h 4 v -18.4 z"
   style="fill:#000000" />
			</g>
		</g>
	</g>
</g>
<g
   id="studio"
   transform="translate(-434.48761,-293.15869)"
   style="fill:#000000">
	<g
   id="XMLID_49_"
   style="fill:#000000">
		<g
   id="XMLID_50_"
   transform="translate(198.99413,216.93362)"
   style="fill:#000000">
			<g
   id="XMLID_51_"
   style="fill:#000000">
				<path
   id="XMLID_8_"
   d="m 905.7,445.3 c 5.1,1.2 8.5,2.5 10.3,4 1.3,1 1.9,2.3 1.9,4 0,1.6 -0.3,2.9 -1,3.8 -1.7,2.4 -4.8,3.6 -9.2,3.6 -6.1,0 -9.5,-2.1 -10.3,-6.2 h -4.7 c 1.4,6.6 6.3,9.9 15,9.9 3.8,0 7,-0.8 9.6,-2.5 3.1,-2 4.7,-5 4.7,-8.9 0,-3.2 -1.3,-5.7 -3.8,-7.4 -1.8,-1.3 -4.6,-2.4 -8.6,-3.4 -4,-1 -6.6,-1.9 -7.8,-2.5 -2.6,-1.3 -3.9,-3.2 -3.9,-5.6 0,-1.3 0.2,-2.3 0.8,-3.2 1.5,-2.2 4.1,-3.4 7.9,-3.4 5.3,0 8.4,1.7 9.2,5.1 h 4.4 c -1.4,-5.6 -6,-8.5 -13.5,-8.5 -3.4,0 -6.5,0.9 -9,2.8 -2.6,1.8 -3.9,4.5 -3.9,8.2 0,4.9 4,8.4 11.9,10.2 z"
   style="fill:#000000" />
			</g>
		</g>
	</g>
	<g
   id="XMLID_45_"
   style="fill:#000000">
		<g
   id="XMLID_46_"
   transform="translate(211.87016,216.93362)"
   style="fill:#000000">
			<g
   id="XMLID_47_"
   style="fill:#000000">
				<path
   id="XMLID_7_"
   d="m 952.6,428.3 h 9.5 v 35.2 h 4 v -35.2 h 9.5 v -3.7 h -22.9 v 3.7 z"
   style="fill:#000000" />
			</g>
		</g>
	</g>
	<g
   id="XMLID_41_"
   style="fill:#000000">
		<g
   id="XMLID_42_"
   transform="translate(223.40513,216.93362)"
   style="fill:#000000">
			<g
   id="XMLID_43_"
   style="fill:#000000">
				<path
   id="XMLID_6_"
   d="m 1038.4,450.7 v -26.1 h -4 v 26.7 c 0,1.6 -0.3,2.9 -0.9,4 -1.7,3.2 -4.9,4.8 -9.6,4.8 -3.1,0 -5.6,-0.7 -7.4,-2.1 -2.1,-1.5 -3.2,-3.8 -3.2,-6.8 v -26.7 h -4 v 26.1 c 0,4.2 1.4,7.6 4.1,10 2.6,2.3 6.1,3.4 10.4,3.4 4.3,0 7.7,-1.1 10.4,-3.4 2.8,-2.3 4.2,-5.6 4.2,-9.9 z"
   style="fill:#000000" />
			</g>
		</g>
	</g>
	<g
   id="XMLID_35_"
   style="fill:#000000">
		<g
   id="XMLID_36_"
   transform="translate(236.81158,216.93362)"
   style="fill:#000000">
			<g
   id="XMLID_37_"
   style="fill:#000000">
				<path
   id="XMLID_38_"
   d="m 1103.8,444.2 c 0,-2.8 -0.6,-5.4 -1.6,-7.8 -1,-2.4 -2.5,-4.5 -4.2,-6.2 -1.8,-1.7 -4,-3 -6.3,-4 -2.5,-1 -5.1,-1.5 -7.9,-1.5 h -10.2 v 39 h 10.2 c 2.8,0 5.4,-0.5 7.9,-1.4 2.4,-1 4.5,-2.3 6.3,-4.1 1.8,-1.7 3.2,-3.7 4.2,-6.1 1,-2.5 1.6,-5.1 1.6,-7.9 z m -3.9,0 c 0,4.4 -1.6,8.2 -4.7,11.1 -3.1,2.9 -6.9,4.4 -11.3,4.4 h -6.3 v -31 h 6.3 c 4.5,0 8.3,1.5 11.3,4.4 3.1,2.9 4.7,6.6 4.7,11.1 z"
   style="fill:#000000" />
			</g>
		</g>
	</g>
	<g
   id="XMLID_31_"
   style="fill:#000000">
		<g
   id="XMLID_32_"
   transform="translate(250.4282,216.93362)"
   style="fill:#000000">
			<g
   id="XMLID_33_"
   style="fill:#000000">
				<path
   id="XMLID_5_"
   d="m 1141.9,463.6 v -39 h -4 v 39 z"
   style="fill:#000000" />
			</g>
		</g>
	</g>
	<g
   id="XMLID_2_"
   style="fill:#000000">
		<g
   id="XMLID_3_"
   transform="translate(259.76144,216.93362)"
   style="fill:#000000">
			<g
   id="XMLID_4_"
   style="fill:#000000">
				<path
   id="XMLID_26_"
   d="m 1216.3,444 c 0,4.5 -1.6,8.3 -4.7,11.4 -3.2,3.2 -6.9,4.7 -11.3,4.7 -4.4,0 -8.2,-1.5 -11.3,-4.7 -3.2,-3.1 -4.7,-6.9 -4.7,-11.4 0,-4.3 1.5,-8.1 4.7,-11.3 3.1,-3.1 6.9,-4.7 11.3,-4.7 4.4,0 8.2,1.6 11.3,4.7 3.1,3.2 4.7,7 4.7,11.3 z m 4,0 c 0,-2.8 -0.6,-5.3 -1.6,-7.8 -1,-2.4 -2.5,-4.5 -4.3,-6.4 -1.8,-1.8 -4,-3.2 -6.4,-4.2 -2.5,-1.1 -5,-1.6 -7.8,-1.6 -2.8,0 -5.4,0.6 -7.8,1.6 -2.4,1 -4.5,2.5 -6.3,4.2 -1.8,1.8 -3.3,4 -4.3,6.4 -1.1,2.5 -1.6,5 -1.6,7.8 0,2.8 0.5,5.4 1.6,7.8 1,2.5 2.5,4.6 4.3,6.4 1.8,1.8 4,3.3 6.3,4.3 2.4,1 5.1,1.6 7.8,1.6 2.8,0 5.3,-0.5 7.8,-1.6 2.4,-1 4.5,-2.5 6.4,-4.3 1.8,-1.8 3.3,-4 4.3,-6.4 1,-2.4 1.6,-5 1.6,-7.8 z"
   style="fill:#000000" />
			</g>
		</g>
	</g>
</g>
<path
   style="color:#000000;fill:#000000;stroke-miterlimit:10;-inkscape-stroke:none"
   d="M 1095.0352,0.04101562 C 1069.0551,-0.5631729 1027.0395,5.439984 996.37305,16.5 981.25887,21.905097 961.58986,29.332772 934.23828,44.060547 909.50089,57.334561 883.14664,78.890224 874.90039,87.238281 l 1.42383,1.40625 c 7.95357,-8.051761 34.39919,-29.69624 58.86133,-42.822265 27.2474,-14.671679 46.77769,-22.044609 61.86328,-27.439454 h 0.002 C 1027.3843,7.4428503 1069.3684,1.4452053 1094.9883,2.0410156 c 20.6509,0.5012365 56.4102,-0.2213675 102.6074,27.6562504 27.7878,16.77191 55.1768,47.42425 72.1973,87.138674 16.9194,39.41233 23.395,87.96773 20.1269,116.29101 -6.7894,58.50864 -18.3214,87.7044 -38.5039,128.36914 v 0.002 c -15.4024,31.15382 -34.3037,56.76389 -50.5019,75.73047 -16.1983,18.96657 -29.6484,31.24604 -34.3086,35.90625 -5.6781,5.67807 -33.8047,30.80199 -67.6836,49.83398 -31.7769,17.83066 -69.473,30.13659 -79.4864,33.01172 -24.90004,6.97126 -67.0333,14.55723 -110.39448,13.36133 h -0.002 c -20.4042,-0.60294 -75.7355,0.89243 -140.43164,-26.91993 C 747.33784,533.29201 712.33193,521.14479 654.125,461.93945 597.49306,404.31047 533.18526,297.34907 507.75,258.29492 c -6.51425,-9.9872 -12.46247,-19.7533 -18.41797,-29.53125 12.56077,-15.80679 25.26087,-32.4909 37.33594,-48.86719 28.60965,-38.80059 53.65963,-74.72177 63.875,-85.673824 h 0.002 c 5.33284,-5.735313 10.53867,-12.129086 18.00781,-16.466797 7.46915,-4.337711 17.22071,-6.698856 31.89454,-4.228515 l 0.33203,-1.972657 c -15.02615,-2.529653 -25.37659,-0.08962 -33.23243,4.472657 -7.85583,4.56228 -13.19964,11.169309 -18.46679,16.833984 -10.58536,11.349472 -35.43434,47.076902 -64.02344,85.849612 -11.92271,16.16965 -24.45635,32.624 -36.85352,48.24218 -23.91338,-39.37858 -45.27787,-78.09955 -76.97265,-123.18554 v -0.002 C 386.08878,67.922231 349.04224,63.341797 325.91211,63.341797 c -30.66609,0 -60.45785,7.615705 -80.90625,23.205078 h -0.002 c -15.91287,12.186439 -43.22225,38.512295 -51.47657,85.320315 -0.009,0.0431 -0.17556,0.78484 -0.38672,1.94336 -0.21348,1.17128 -0.48376,2.82875 -0.74023,4.91601 -0.51294,4.17453 -0.97086,10.06422 -0.80078,17.20117 0.34015,14.27392 3.18891,33.54519 13.11328,54.04883 v 0.002 c 16.73214,34.47223 45.56411,54.02325 71.62109,64.6875 16.66963,6.81939 43.24424,12.36298 72.93555,9.55859 29.69131,-2.80439 62.49549,-13.98766 91.41992,-40.64844 v 0.002 c 14.15255,-13.02033 30.58306,-32.15248 47.32813,-53.14062 5.84431,9.58415 11.66591,19.15139 18.05664,28.94922 25.36468,38.94578 89.65706,145.98418 146.625,203.95508 58.39295,59.39454 93.98876,71.84785 115.11914,80.91797 65.10226,27.98695 120.96718,26.48507 141.16406,27.08203 h 0.002 c 43.63412,1.2037 85.89768,-6.4094 110.99803,-13.4375 h 0 l 0,-0.002 c 10.1864,-2.92482 47.8913,-15.2206 79.914,-33.18945 34.121,-19.16797 62.1953,-44.24215 68.1172,-50.16406 4.5398,-4.53979 18.1394,-16.9631 34.416,-36.02149 16.2765,-19.05807 35.2761,-44.79522 50.7735,-76.14062 v -0.002 c 20.2169,-40.73432 31.8868,-70.33691 38.6973,-129.02735 v -0.002 c 3.3319,-28.87666 -3.1949,-77.52101 -20.2754,-117.30859 -17.1795,-40.085494 -44.7898,-71.034449 -73.002,-88.062505 C 1152.0262,-0.13795168 1115.5861,0.53977811 1095.0371,0.04101562 Z M 325.91211,65.341797 c 22.86954,0 59.02339,4.418888 83.68164,39.574223 31.79344,45.22616 53.19986,84.07771 77.29492,123.71093 -16.87526,21.17586 -33.4199,40.47631 -47.55273,53.47852 h -0.002 c -28.5755,26.33916 -60.92027,37.35635 -90.2539,40.12695 -29.33363,2.77061 -55.65794,-2.73542 -71.98828,-9.41601 -25.74297,-10.53573 -54.11225,-29.78325 -70.58008,-63.71094 -9.77561,-20.19632 -12.57727,-39.17356 -12.91211,-53.22461 -0.16742,-7.02553 0.28247,-12.81907 0.78516,-16.91016 0.25134,-2.04554 0.51543,-3.66581 0.72265,-4.80273 0.20722,-1.13692 0.34028,-1.70726 0.38477,-1.92969 l 0.004,-0.0117 0.002,-0.0117 c 8.14532,-46.18995 35.03332,-72.06393 50.7207,-84.078121 l 0.002,-0.002 c 19.95153,-15.209514 49.35864,-22.792969 79.69141,-22.792969 z"
   id="XMLID_1_" />
<path
   id="XMLID_52_"
   d="m 880.41239,90.641315 c -6.4,6.7 -6.1,35.199995 -6.1,35.199995 0,0 1.1,-28.799995 -5.3,-35.399995 -5.7,-5.8 -31.9,-6.2 -31.9,-6.2 0,0 25,2.9 31.2,-2.6 4.8,-4.4 5.5,-24.3 5.5,-24.3 0,0 1.8,19.4 6.8,23.7 6.2,5.3 30.1,2.8 30.1,2.8 0,0 -24.7,0.9 -30.3,6.8 z"
   style="fill:#000000" />
</svg>
